<!DOCTYPE svg PUBLIC "-//W3C//DTD SVG 1.1//EN" "http://www.w3.org/Graphics/SVG/1.1/DTD/svg11.dtd">

<!-- Uploaded to: SVG Repo, www.svgrepo.com, Transformed by: SVG Repo Mixer Tools -->
<svg fill="#152784" width="60px" height="60px" viewBox="0 0 512 512" version="1.1" xml:space="preserve" xmlns="http://www.w3.org/2000/svg" xmlns:xlink="http://www.w3.org/1999/xlink">

<g id="SVGRepo_bgCarrier" stroke-width="0"/>

<g id="SVGRepo_tracerCarrier" stroke-linecap="round" stroke-linejoin="round"/>

<g id="SVGRepo_iconCarrier"> <g id="_x37_03_x2C__Award_x2C__honor_x2C__medal_x2C__rank_x2C__reputation_x2C__ribbon"> <g> <path d="M321.586,276.799c-9.098-9.095-20.1-16.309-32.309-20.996 c-22.542-7.887-43.816-8.617-66.358-0.056c-11.676,4.071-23.745,12.322-32.473,21.052c-16.786,16.786-27.143,39.972-27.143,65.57 c0,25.598,10.356,48.783,27.143,65.569c16.782,16.758,39.969,27.143,65.568,27.143c25.598,0,48.786-10.385,65.572-27.143 c16.754-16.786,27.143-39.972,27.143-65.569C348.729,316.771,338.34,293.585,321.586,276.799 M223.369,248.225 c1.825-0.617,3.678-1.207,5.531-1.74l20.717-53.219l-60.293-154.83l-78.23-12.434L223.369,248.225z M321.417,324.574 l-37.25,26.945l14.287,43.704l-5.303,3.845l-37.137-27.114l-37.162,27.114l-5.278-3.845l14.287-43.704l-37.246-26.945l2.021-6.233 l45.975,0.085l14.119-43.761h6.542l14.146,43.761l45.979-0.085L321.417,324.574z M278.078,347.421l30.648-22.203l-40.335,0.085 l-12.377-38.37l-12.406,38.37l-40.334-0.085l32.701,23.663l-12.55,38.343l32.589-23.774l32.589,23.774l-12.547-38.343 L278.078,347.421z M295.618,476.876c0.478,1.824-0.617,3.733-2.438,4.211c-1.854,0.506-3.734-0.59-4.212-2.442l-7.131-26.525 c-0.478-1.853,0.617-3.733,2.442-4.239c1.854-0.477,3.734,0.618,4.239,2.442L295.618,476.876z M329.078,462.055 c0.927,1.629,0.365,3.734-1.264,4.689c-1.656,0.926-3.762,0.364-4.688-1.264l-13.753-23.804c-0.928-1.628-0.365-3.76,1.263-4.687 c1.657-0.955,3.763-0.365,4.688,1.264L329.078,462.055z M357.568,439.04c1.348,1.346,1.348,3.535,0,4.883s-3.537,1.348-4.885,0 L333.262,424.5c-1.348-1.348-1.348-3.538,0-4.886s3.534-1.348,4.882,0L357.568,439.04z M379.127,409.482 c1.625,0.955,2.187,3.059,1.26,4.688c-0.951,1.656-3.057,2.218-4.713,1.264l-23.805-13.754c-1.625-0.927-2.187-3.061-1.232-4.689 c0.924-1.654,3.057-2.216,4.686-1.262L379.127,409.482z M392.291,375.321c1.822,0.478,2.917,2.386,2.439,4.212 c-0.477,1.853-2.383,2.918-4.208,2.441l-26.553-7.101c-1.825-0.506-2.92-2.387-2.442-4.212c0.506-1.853,2.387-2.945,4.236-2.442 L392.291,375.321z M396.162,338.917c1.91,0,3.453,1.542,3.453,3.452c0,1.908-1.543,3.453-3.453,3.453h-27.451 c-1.909,0-3.449-1.545-3.449-3.453c0-1.91,1.54-3.452,3.449-3.452H396.162z M390.522,302.764c1.825-0.505,3.731,0.588,4.208,2.441 c0.478,1.824-0.617,3.734-2.439,4.211l-26.527,7.102c-1.85,0.506-3.73-0.59-4.236-2.414c-0.478-1.854,0.617-3.734,2.442-4.238 L390.522,302.764z M119.74,309.416c-1.853-0.477-2.948-2.387-2.443-4.211c0.478-1.854,2.387-2.946,4.208-2.441l26.528,7.102 c1.85,0.504,2.944,2.385,2.439,4.238c-0.477,1.824-2.383,2.92-4.208,2.414L119.74,309.416z M115.837,345.822 c-1.909,0-3.453-1.545-3.453-3.453c0-1.91,1.544-3.452,3.453-3.452h27.479c1.909,0,3.454,1.542,3.454,3.452 c0,1.908-1.544,3.453-3.454,3.453H115.837z M121.505,381.975c-1.821,0.477-3.73-0.589-4.208-2.441 c-0.505-1.826,0.59-3.734,2.443-4.212l26.525-7.102c1.825-0.503,3.73,0.59,4.208,2.442c0.505,1.825-0.589,3.706-2.439,4.212 L121.505,381.975z M136.354,415.434c-1.653,0.954-3.758,0.393-4.713-1.264c-0.954-1.629-0.393-3.732,1.264-4.688l23.773-13.754 c1.656-0.954,3.762-0.393,4.717,1.262c0.955,1.629,0.393,3.763-1.264,4.689L136.354,415.434z M159.345,443.923 c-1.348,1.348-3.538,1.348-4.885,0s-1.348-3.537,0-4.883l19.425-19.426c1.348-1.348,3.538-1.348,4.882,0 c1.348,1.348,1.348,3.538,0,4.886L159.345,443.923z M188.902,465.48c-0.926,1.628-3.06,2.189-4.688,1.264 c-1.657-0.955-2.218-3.061-1.264-4.689l13.726-23.801c0.955-1.629,3.061-2.219,4.689-1.264c1.656,0.927,2.218,3.059,1.263,4.687 L188.902,465.48z M223.06,478.645c-0.478,1.853-2.383,2.948-4.208,2.442c-1.853-0.478-2.948-2.387-2.443-4.211l7.1-26.554 c0.505-1.824,2.386-2.919,4.211-2.442c1.853,0.506,2.948,2.387,2.442,4.239L223.06,478.645z M259.467,482.547 c0,1.88-1.544,3.452-3.453,3.452c-1.909,0-3.454-1.572-3.454-3.452v-27.481c0-1.907,1.544-3.451,3.454-3.451 c1.909,0,3.453,1.544,3.453,3.451V482.547z M400.907,26.002l-78.259,12.434l-85.442,206.113c4.604-0.898,9.377-1.461,14.203-1.686 h0.196l0.786-0.027l0.225-0.028h0.197h0.196h0.197h0.196l0.028-0.028h0.168h0.196h0.197h0.225h0.196h0.197h0.112h0.084 l0.197-0.027h0.196h0.197h0.225h0.196h0.197h0.281h0.281h0.281l0.309,0.027h0.141h0.14h0.281h0.28h0.31h0.252h0.028l0.281,0.028 h0.28h0.281l0.28,0.028h0.141h0.168l0.281,0.027h0.28l0.281,0.029h0.253h0.027l0.281,0.027h0.309l0.281,0.028h0.28h0.112 l0.169,0.028c9.064,0.59,17.793,2.387,26.047,5.248L400.907,26.002z" style="fill-rule:evenodd;clip-rule:evenodd;"/> </g> </g> <g id="Layer_1"/> </g>

</svg>